<?xml version="1.0" encoding="UTF-8"?>
<svg id="Layer_1" xmlns="http://www.w3.org/2000/svg" version="1.1" viewBox="0 0 56.2 77.9">
  <!-- Generator: Adobe Illustrator 30.0.0, SVG Export Plug-In . SVG Version: 2.1.1 Build 123)  -->
  <path d="M47.5,32.1h-2.1v-13c0-9.5-7.7-17.1-17.1-17.1S11,9.6,11,19.1v13h-2.1c-3.7,0-6.7,3-6.7,6.7v31c0,3.7,3,6.7,6.7,6.7h38.6c3.7,0,6.7-3,6.7-6.7v-31c0-3.7-3-6.7-6.7-6.7ZM17,19.1c0-6.1,5-11.1,11.1-11.1s11.1,5,11.1,11.1v13h-22.3v-13ZM31.6,54v8.3c0,1.9-1.5,3.4-3.4,3.4s-3.4-1.5-3.4-3.4v-8.3c-1.6-1.1-2.7-2.9-2.7-5,0-3.4,2.7-6.1,6.1-6.1s6.1,2.7,6.1,6.1-1.1,3.9-2.6,5Z"/>
</svg>